<svg width="168" height="168" viewBox="0 0 168 168" fill="none" xmlns="http://www.w3.org/2000/svg">
<circle cx="84" cy="84" r="84" fill="#5E81F4"/>
<path d="M123.067 50.1817L123.067 50.1816C120.818 48.3644 117.497 48.6764 115.64 50.8895L115.64 50.8896L69.956 105.334L52.5431 82.0294C50.8139 79.7151 47.5145 79.2225 45.1675 80.9118C42.8092 82.6091 42.2912 85.8757 44.0289 88.2014L44.0289 88.2015L65.4574 116.88L65.4574 116.88C66.4251 118.175 67.9428 118.953 69.5667 118.998C71.1898 119.042 72.7489 118.35 73.7888 117.11L123.788 57.5231C123.788 57.523 123.788 57.523 123.788 57.523C125.655 55.2984 125.326 52.0079 123.067 50.1817Z" fill="white" stroke="white" stroke-width="2"/>
</svg>
