<svg width="168" height="168" viewBox="0 0 168 168" fill="none" xmlns="http://www.w3.org/2000/svg">
<circle cx="84" cy="84" r="84" fill="#5ED0F4"/>
<path d="M72.0547 116C72.0547 112.867 72.988 110.4 74.8547 108.6C76.7214 106.8 79.3547 105.9 82.7547 105.9C86.1547 105.9 88.788 106.833 90.6547 108.7C92.5214 110.5 93.4547 112.933 93.4547 116C93.4547 119.067 92.5214 121.533 90.6547 123.4C88.788 125.2 86.1547 126.1 82.7547 126.1C79.3547 126.1 76.7214 125.2 74.8547 123.4C72.988 121.6 72.0547 119.133 72.0547 116ZM72.6547 101.2V95.1C72.6547 91.2333 73.088 88.0667 73.9547 85.6C74.8214 83.1333 76.6547 81.0667 79.4547 79.4C81.6547 78.0667 83.6214 76.8667 85.3547 75.8C87.088 74.7333 88.488 73.7333 89.5547 72.8C91.1547 71.3333 92.2214 70 92.7547 68.8C93.288 67.5333 93.5547 66.0333 93.5547 64.3C93.5547 61.9667 92.7547 60.1333 91.1547 58.8C89.5547 57.4667 87.6214 56.8 85.3547 56.8C83.0214 56.8 80.9214 57.3667 79.0547 58.5C77.2547 59.5667 76.0547 61.1333 75.4547 63.2C74.7214 65.6 73.388 67.4333 71.4547 68.7C69.5214 69.9667 67.1547 70.5 64.3547 70.3C63.2214 70.2333 62.1214 70 61.0547 69.6C59.988 69.1333 59.0547 68.5 58.2547 67.7C57.5214 66.9 56.9214 65.9333 56.4547 64.8C55.988 63.6 55.788 62.2333 55.8547 60.7C55.9214 57.6333 56.7547 54.8 58.3547 52.2C59.9547 49.5333 62.088 47.2333 64.7547 45.3C67.4214 43.3667 70.5214 41.8667 74.0547 40.8C77.588 39.6667 81.3547 39.1 85.3547 39.1C89.488 39.1 93.288 39.6333 96.7547 40.7C100.288 41.7 103.321 43.2333 105.855 45.3C108.388 47.3667 110.355 50 111.755 53.2C113.221 56.3333 113.955 60.0333 113.955 64.3C113.955 67.7 113.555 70.6333 112.755 73.1C111.955 75.5667 110.655 77.8667 108.855 80C107.321 81.7333 105.421 83.4667 103.155 85.2C100.955 86.9333 98.6214 88.6 96.1547 90.2C94.7547 91.1333 93.8547 92.1333 93.4547 93.2C93.0547 94.2 92.8547 95.3667 92.8547 96.7V101.2H72.6547Z" fill="white"/>
</svg>
