<svg width="168" height="168" viewBox="0 0 168 168" fill="none" xmlns="http://www.w3.org/2000/svg">
<circle cx="84" cy="84" r="84" fill="#4CCBAB"/>
<path fill-rule="evenodd" clip-rule="evenodd" d="M84 128C79.858 128 76.5 124.623 76.5 120.457L76.5 80.2286C76.5 76.0629 79.858 72.6857 84 72.6857C88.1421 72.6857 91.5 76.0629 91.5 80.2286L91.5 120.457C91.5 124.623 88.1421 128 84 128ZM74 50.0572C74 44.5026 78.477 40 84 40C89.5229 40 94 44.5026 94 50.0572C94 55.6117 89.5229 60.1143 84 60.1143C78.477 60.1143 74 55.6117 74 50.0572Z" fill="white"/>
</svg>
