<svg width="168" height="168" viewBox="0 0 168 168" fill="none" xmlns="http://www.w3.org/2000/svg">
<circle cx="84" cy="84" r="84" fill="#FF4A5A"/>
<path d="M51.4396 58.4265L50.738 59.128C48.4211 56.8111 48.4211 53.0547 50.738 50.7377C50.738 50.7377 50.738 50.7377 50.7381 50.7377M51.4396 58.4265L50.7381 50.7377M51.4396 58.4265L50.738 59.128L75.6097 83.9997L50.7377 108.872C48.4208 111.189 48.4208 114.945 50.7377 117.262C53.0546 119.579 56.811 119.579 59.128 117.262L83.9999 92.3903L108.872 117.262C111.189 119.579 114.945 119.579 117.262 117.262C119.579 114.945 119.579 111.189 117.262 108.872L92.3904 83.9997L117.262 59.128C119.579 56.8111 119.579 53.0546 117.262 50.7377C114.945 48.4208 111.189 48.4208 108.872 50.7377L83.9999 75.6095L59.1283 50.7377L58.559 51.3071L59.1283 50.7377C56.8114 48.4208 53.055 48.4207 50.7381 50.7377M51.4396 58.4265L50.7381 50.7377" fill="white" stroke="white" stroke-width="2"/>
</svg>
