<svg width="200" height="47" viewBox="0 0 200 47" fill="none" xmlns="http://www.w3.org/2000/svg">
<path d="M28.7526 0.587595C28.4516 0.526547 28.1583 0.709693 28.0965 1.00731C28.0657 1.16756 28.0965 1.32018 28.1969 1.44228L28.2123 7.95161C28.2046 8.1195 28.0039 12.0495 31.1995 13.7055C31.323 13.797 33.7313 15.5446 37.7374 15.5446C38.571 15.5446 39.4741 15.4683 40.4467 15.2851C40.5625 15.2546 42.8704 14.5754 44.1826 13.9878C44.3061 14.2396 44.4219 14.4991 44.5377 14.7586C42.222 15.9872 40.493 16.2772 40.4621 16.2772C36.95 16.9411 34.2485 16.2008 34.2253 16.2008C29.3933 14.7357 27.8881 11.8511 27.6566 11.3398C27.6103 10.9201 27.6025 10.6683 27.6025 10.6607L27.5099 0.778373C27.5099 0.541809 27.3169 0.3434 27.0622 0.3434C26.8152 0.3434 26.6223 0.541809 26.6223 0.786004L26.7149 10.6683C26.7149 10.6683 26.7149 10.9659 26.7612 11.3856C26.7612 11.4161 26.7612 11.4467 26.7689 11.4772C26.8615 12.2861 27.0931 13.6292 27.6952 15.1478C27.6952 15.2317 27.7338 15.308 27.7878 15.3767C28.0502 16.0024 28.3667 16.6511 28.7681 17.3074C28.8298 17.3989 30.2424 19.5662 31.4002 20.6803C31.4156 20.6956 33.0906 22.2981 33.9474 23.4733C33.9629 23.4886 35.3368 25.0606 35.468 29.7003C35.1593 29.5553 34.8582 29.4179 34.5649 29.2806C34.5032 26.9683 34.0169 25.465 33.9937 25.3963C33.4148 23.7099 31.9791 22.3973 31.9174 22.3439C30.6746 21.2374 28.8684 18.948 28.8607 18.9328C26.5142 15.8727 25.8118 12.9729 25.8118 12.9424C25.8118 12.9195 25.7886 12.8966 25.7809 12.8737L25.6188 0.54944C25.6188 0.312875 25.4181 0.122098 25.1788 0.122098C24.9318 0.122098 24.7389 0.320507 24.7466 0.564702L24.9318 14.7357C24.9318 14.7815 25.0167 19.6501 24.7466 21.6723C24.7466 21.7105 24.708 23.6335 24.0982 26.0373C24.0364 26.1289 24.0056 26.2358 24.021 26.3426C23.5038 28.2656 22.6085 30.4558 21.0878 32.2185C20.8177 31.9972 20.5707 31.7836 20.3468 31.5928C22.786 28.9295 23.4884 24.6408 23.5116 24.4959C24.1908 21.8097 24.021 15.6361 24.0133 15.3843L23.7354 0.427342C23.7354 0.183147 23.5347 0 23.2877 0C23.0407 0 22.8477 0.20604 22.8555 0.442604L23.1333 15.3996C23.1333 15.4606 23.3109 21.7105 22.6471 24.3203C22.6471 24.3661 21.9524 28.5403 19.6985 31.0052C19.4051 30.7305 19.2353 30.5626 19.2199 30.5473C19.135 30.4786 19.0501 30.4023 18.9652 30.326C21.5973 27.4186 21.8597 23.7556 21.8675 23.6412C22.3537 20.7337 22.3074 16.3764 22.2997 16.1932L22.1453 0.541809C22.1453 0.297613 21.9755 0.106836 21.6976 0.106836C21.4506 0.106836 21.2577 0.305244 21.2577 0.54944L21.3889 13.2705C21.3889 13.2705 21.3657 13.3239 21.3657 13.3544C21.3657 13.4079 20.9026 19.0396 19.0578 21.2145C19.0424 21.2374 17.7224 23.2749 15.9548 23.9464C15.9317 23.954 13.4308 25.0453 10.9067 24.8774C10.9453 24.5798 10.9916 24.2898 11.0456 24.0075C11.2309 24.0227 11.4084 24.0304 11.586 24.0304C14.2644 24.0304 16.3948 22.7789 16.472 22.7331C18.7336 21.535 19.5286 18.1163 19.5595 18.0018C20.6093 14.4152 20.4395 9.26417 20.4317 9.05813L20.37 0.839422C20.37 0.602858 20.1693 0.404449 19.93 0.404449C19.683 0.404449 19.4901 0.602858 19.4901 0.847053L19.5518 9.08102C19.5518 9.08102 19.575 9.76782 19.5518 10.7675C19.5441 10.798 19.5286 10.8285 19.5209 10.8667C19.5132 10.9888 19.2508 13.9497 14.9745 15.9719C14.8819 16.0253 12.7592 17.17 9.91098 16.0024L3.46576 13.5757C3.59698 13.3163 3.7282 13.0645 3.86713 12.8126L9.92642 14.9722C10.9067 15.3538 11.7867 15.4988 12.5663 15.4988C14.9282 15.4988 16.3022 14.171 16.3408 14.1252C18.6178 12.3777 18.6487 8.6842 18.6487 8.52395L18.6024 1.28203C18.6024 1.1523 18.5406 1.03783 18.448 0.96152C18.3168 0.808898 18.1007 0.732586 17.8923 0.786004C7.35605 3.41874 0 12.7745 0 23.5343C0 36.4767 10.652 47 23.7354 47C36.8188 47 47.4708 36.4691 47.4708 23.5343C47.4708 12.5455 39.5976 2.89982 28.7526 0.587595ZM44.9545 31.3257C44.4142 31.4478 43.349 31.7912 41.0951 32.6154C40.8789 32.4704 40.6628 32.333 40.4621 32.2109C41.5119 31.7759 43.6886 30.9213 45.2015 30.6313C45.1243 30.8678 45.0394 31.0968 44.9545 31.3333V31.3257ZM43.4416 34.5308C43.0556 34.0882 42.5308 33.6456 41.975 33.2335C42.9321 32.8901 43.8893 32.5543 44.5454 32.3483C44.2212 33.0961 43.8507 33.8287 43.4416 34.5308ZM38.378 40.5822C37.4826 39.2544 35.0898 37.6443 34.6267 37.339C34.7039 36.8659 34.7888 36.4233 34.8737 36.0188C35.8308 36.7591 38.131 38.6058 39.0419 40.0023C38.8257 40.2007 38.6019 40.3915 38.3703 40.5822H38.378ZM36.9346 41.6964C36.3325 40.9027 35.0821 39.8115 34.3797 39.2163C34.4106 38.9034 34.4414 38.5981 34.48 38.2929C35.6378 39.0865 37.1893 40.3151 37.6833 41.124C37.4363 41.3148 37.1816 41.5056 36.9269 41.6887L36.9346 41.6964ZM34.5572 43.1844C34.3411 42.3374 34.2793 41.3377 34.3102 40.3228C35.1052 41.0248 35.8694 41.7574 36.2168 42.1924C35.6764 42.5434 35.1284 42.8792 34.5572 43.1844ZM33.7545 43.5965C33.5229 43.711 33.2836 43.8178 33.0443 43.9247C31.9097 40.071 33.2836 34.9123 33.7004 33.5387C33.9474 33.6456 34.2099 33.76 34.4723 33.8821C34.1944 34.8665 32.7819 40.2388 33.7545 43.5965ZM31.5083 44.558C30.088 39.8115 31.8016 34.3324 32.2956 32.9359C32.4654 33.0045 32.6661 33.0885 32.8822 33.1877C32.4808 34.4926 30.9216 40.0328 32.2261 44.2757C31.9868 44.3749 31.7476 44.4665 31.5006 44.558H31.5083ZM10.1811 41.4598C10.513 40.6204 10.9993 39.0942 11.146 38.6363C11.4547 38.5981 11.7558 38.5676 12.0491 38.5447C11.8253 39.2773 11.2849 40.9943 10.9376 41.994C10.6829 41.8185 10.4281 41.643 10.1811 41.4598ZM8.96156 40.483L9.44013 38.9415C9.67941 38.8805 9.92642 38.8271 10.1734 38.7813C9.94957 39.4834 9.6717 40.3228 9.45557 40.8951C9.28575 40.7578 9.12366 40.6204 8.96156 40.483ZM7.86549 39.491C8.04302 39.407 8.22827 39.3307 8.42125 39.2621L8.24371 39.842C8.12021 39.7276 7.99671 39.6131 7.87321 39.491H7.86549ZM6.5996 38.1479C9.61766 36.6904 13.8939 36.7819 15.1752 36.843C15.0749 37.1024 14.9745 37.3619 14.8742 37.6366C14.0483 37.5832 9.94186 37.4153 7.22483 38.8271C7.0087 38.6058 6.80801 38.3768 6.5996 38.1403V38.1479ZM5.5344 36.843C9.17769 34.8513 14.4651 35.1489 15.8159 35.2634C15.7233 35.4847 15.6152 35.7289 15.5149 35.9883C14.6735 35.9273 9.56363 35.6449 6.02069 37.4611C5.85859 37.2551 5.6965 37.0567 5.5344 36.843ZM3.6896 33.9355C4.3843 33.4319 6.12875 32.7603 7.38692 32.3635C7.56446 33.1419 7.77286 33.9966 8.02758 34.9428C6.98554 35.2176 5.95122 35.5991 5.01724 36.1257C4.53095 35.4236 4.09098 34.691 3.6896 33.9355ZM1.19642 25.7016C2.51634 25.7245 5.40318 26.2586 6.57645 26.5028C6.57645 26.5028 6.57645 26.5105 6.57645 26.5181C6.57645 26.5715 6.56101 27.1667 6.68451 28.3343C6.13647 28.4335 3.59698 28.9448 2.01462 29.8605C1.61324 28.5251 1.33536 27.1362 1.19642 25.7016ZM2.39284 16.0482L8.86122 18.3147C8.49843 18.887 7.63392 20.3598 7.07045 22.2752C6.12875 22.0081 3.16472 21.2145 1.22729 21.1076C1.42027 19.3601 1.81393 17.6584 2.39284 16.0482ZM14.1641 27.2278C14.8819 30.0589 17.213 32.1575 17.2747 32.2109C18.1624 33.2106 21.5819 35.5839 22.593 36.2783C22.485 36.4309 22.3769 36.5759 22.2765 36.7209C22.2611 36.7362 22.2148 36.7972 22.1376 36.8888C20.7251 36.0875 19.5672 35.271 18.6873 34.5766C18.6487 34.5308 18.6024 34.4926 18.5484 34.4697C17.3751 33.5464 16.7421 32.8748 16.7113 32.8443C14.7275 31.1197 13.562 28.2962 13.2146 27.3728C13.5388 27.3346 13.8553 27.2812 14.1563 27.2278H14.1641ZM12.3115 27.4491C12.5354 28.0901 13.7627 31.4402 16.1015 33.47C16.1169 33.4929 16.2404 33.615 16.4565 33.8211C16.3948 33.9508 16.3022 34.1492 16.1864 34.4163C15.839 34.3781 14.2335 34.2179 12.1803 34.3247C12.1803 34.3095 12.1803 34.2942 12.1803 34.2713C11.3312 31.7073 10.9993 28.9066 10.8758 27.4109C11.2077 27.4415 11.5397 27.4567 11.8561 27.4567C12.0105 27.4567 12.1649 27.4567 12.3193 27.4415L12.3115 27.4491ZM9.9187 26.3426C9.9187 26.5181 10.0731 30.6007 11.2927 34.3934C11.0225 34.4163 10.7523 34.4468 10.4667 34.485C9.35522 30.8373 9.04647 26.7852 9.04647 26.747C8.80719 22.5041 11.0688 19.3983 11.4084 18.9633C11.7095 19.0015 11.9951 19.0167 12.2575 19.0244C11.4625 20.1385 9.85695 22.8323 9.9187 26.3426ZM8.16652 26.8005C8.18196 26.9683 8.47528 30.8984 9.58679 34.6147C9.35522 34.6529 9.12366 34.6987 8.89209 34.7444C7.3792 29.2271 7.45639 26.5715 7.45639 26.4952C7.14764 22.6262 9.39382 19.093 9.71801 18.6123L9.80292 18.6428C10.019 18.7038 10.2352 18.7496 10.4436 18.7954C9.69485 19.879 7.9504 22.8399 8.17424 26.8005H8.16652ZM1.15782 21.97C2.97947 22.0539 5.96666 22.8628 6.85432 23.1146C6.79257 23.3817 6.73854 23.6564 6.69995 23.9312C5.71194 23.6946 2.73247 23.0231 1.11151 22.9696C1.11923 22.6339 1.13467 22.3057 1.15782 21.97ZM1.10379 23.8396C2.49318 23.893 5.30284 24.4959 6.58416 24.8011C6.56101 25.0606 6.55329 25.3277 6.54557 25.5947C5.61159 25.404 2.60897 24.824 1.12695 24.824C1.11151 24.4959 1.09607 24.1677 1.09607 23.8396H1.10379ZM2.29249 30.7076C3.64329 29.8376 6.16735 29.3111 6.80029 29.189C6.83117 29.4103 6.86976 29.6392 6.90835 29.8911C6.07472 30.12 3.72048 30.7915 2.58581 31.5088C2.48546 31.2418 2.38512 30.9823 2.29249 30.7076ZM2.91772 32.3254C3.48891 31.8904 5.36459 31.2112 7.06273 30.7534C7.10904 30.9976 7.15536 31.2418 7.20939 31.5088C6.65363 31.6767 4.44605 32.3788 3.29594 33.1572C3.16472 32.8824 3.04122 32.6077 2.91772 32.333V32.3254ZM12.9831 38.4837C13.6546 38.4608 14.2104 38.4761 14.5577 38.4837C13.9942 40.0862 13.4771 41.849 13.2841 43.3676C12.7438 43.0852 12.2112 42.7876 11.694 42.4671C12.1186 41.2919 12.8827 38.8118 12.9831 38.476V38.4837ZM17.1435 34.4392C17.3365 34.6071 17.5526 34.7902 17.7996 34.9886C17.2053 36.2172 15.2061 40.5822 14.8819 44.1383C14.6272 44.0315 14.3725 43.9094 14.1177 43.7949C14.4497 40.567 16.5106 35.8433 17.1435 34.4392ZM18.5098 35.5457C18.7645 35.7365 19.0346 35.9349 19.328 36.1409C18.7799 37.2322 16.8502 41.2843 16.6495 44.7946C16.3408 44.6954 16.0397 44.5886 15.7387 44.4817C15.9548 41.2233 17.8382 36.9804 18.5098 35.5533V35.5457ZM20.0612 36.637C20.5321 36.9498 21.0493 37.2627 21.605 37.5832C20.9335 38.5142 19.93 40.0786 19.4978 41.6964C19.0501 43.6728 18.8648 44.7641 18.8185 45.3822C18.3863 45.283 17.954 45.1762 17.5217 45.0541C17.6375 41.8185 19.4669 37.8503 20.069 36.637H20.0612ZM20.3468 41.9024C20.9643 39.6131 22.9249 37.3009 22.9712 37.2474C24.5459 35.0192 27.5794 31.051 27.919 30.6084C28.112 30.7457 28.3127 30.8907 28.5211 31.0281C27.7492 32.0201 23.3958 37.6595 22.7628 38.8194C22.5467 39.1094 20.9643 41.3225 20.7019 43.7034C20.6633 43.9552 20.5321 44.9396 20.5089 45.6874C20.2233 45.6493 19.9455 45.6035 19.6676 45.5501C19.7139 44.9091 20.0304 43.276 20.3391 41.9024H20.3468ZM21.3889 45.8019C21.3966 45.3135 21.4815 44.5123 21.5819 43.8102C21.8289 41.5361 23.473 39.3384 23.4961 39.3155L23.5347 39.2544C23.9978 38.3692 27.7724 33.4319 29.2698 31.5012C29.5014 31.6386 29.7407 31.7683 29.9877 31.9057C29.0074 33.1495 24.7852 38.5524 24.0828 39.7657C23.9978 39.8878 22.1608 42.6045 22.099 45.8553C21.8675 45.8401 21.6282 45.8248 21.3966 45.8019H21.3889ZM25.3718 39.3994C25.8735 40.7272 26.8847 43.7491 26.63 45.7256C26.4216 45.7485 26.2132 45.779 26.0047 45.8019C26.1746 43.8331 25.1557 40.8417 24.8932 40.1091C25.0013 39.9336 25.1711 39.6894 25.3718 39.3994ZM25.9893 38.5524C26.1514 38.3234 26.3289 38.0869 26.5142 37.8427C27.0391 39.0255 28.3513 42.3145 28.2201 45.4738C27.9962 45.5196 27.7646 45.5577 27.5331 45.5959C27.7415 43.0395 26.3212 39.3613 25.9893 38.5524ZM27.1163 37.049C28.6291 35.0497 30.3813 32.8214 30.7904 32.3025C31.0065 32.4017 31.2381 32.5009 31.4697 32.6001C30.968 33.9966 29.1154 39.7199 30.6669 44.8404C30.1575 45.0006 29.6403 45.1456 29.1154 45.2754C29.2003 41.3911 27.3633 37.5374 27.124 37.049H27.1163ZM32.0177 31.8828C27.5562 30.0971 25.4181 27.0599 24.9241 26.2663C25.0167 25.9152 25.0939 25.5795 25.1557 25.259C26.0665 26.5792 28.0039 28.9753 30.8985 30.3871C30.9525 30.41 36.4792 32.8443 38.5093 34.0271C39.9835 34.9123 41.6045 36.1333 41.975 36.7438C41.782 37.0109 41.5813 37.2627 41.3729 37.5222C40.7091 36.6064 39.4432 35.5762 39.119 35.3168C37.2665 34.0119 32.2416 31.9743 32.0254 31.8828H32.0177ZM25.7655 18.7954C26.5451 19.9401 27.8032 21.7258 28.7063 22.6568C28.7218 22.672 30.2501 24.2746 30.8676 25.1292C30.8753 25.1369 31.5546 25.9152 31.9328 28.0748C27.425 25.7931 25.7423 20.9932 25.7191 20.9474C25.7037 20.9092 25.6883 20.8863 25.6651 20.8558C25.7114 20.2377 25.7423 19.5204 25.7577 18.7954H25.7655ZM38.9569 33.2793C36.8806 32.0736 31.4851 29.6926 31.269 29.6011C27.7724 27.8917 25.696 24.534 25.3718 23.9846C25.449 23.4809 25.4953 23.0383 25.5262 22.6797C26.4138 24.4043 28.2895 27.2431 31.6163 28.899C31.6704 28.9219 36.842 31.2799 38.6405 32.188C39.5976 32.6993 42.1217 34.2026 42.9244 35.3397C42.7855 35.561 42.6388 35.7899 42.4922 36.0112C41.6199 34.9428 39.6516 33.7066 38.9492 33.2869L38.9569 33.2793ZM34.9509 23.4122C35.9234 22.9773 38.3163 22.0005 39.4895 21.9318C39.6208 22.1378 39.7597 22.3439 39.8909 22.5728C38.3549 22.8628 35.7768 23.9235 35.3059 24.1219C35.1747 23.8243 35.0589 23.5954 34.9509 23.4199V23.4122ZM35.6147 24.9385C35.8926 24.8164 39.011 23.5191 40.3618 23.3817C40.4776 23.5878 40.5856 23.8014 40.7014 24.0227C38.5633 24.3661 36.4638 25.3887 35.8385 25.7168C35.7691 25.4345 35.6919 25.175 35.6147 24.9385ZM38.4243 19.093C38.7948 19.0778 39.1345 19.0472 39.4432 19.0091C39.7983 19.3983 43.0325 23.0612 43.897 28.4946C43.6809 28.548 43.4647 28.609 43.2486 28.6701C42.222 23.7404 39.6053 20.398 38.4166 19.093H38.4243ZM46.0969 20.2682C45.3867 20.2606 44.2289 20.3674 43.65 20.4361C43.1097 19.5051 42.6234 18.8183 42.3146 18.4139C43.897 17.9331 44.885 17.4676 45.4022 17.1853C45.7032 18.1926 45.9425 19.2228 46.0969 20.2682ZM46.2126 21.1382C46.2358 21.3595 46.259 21.5884 46.2744 21.8097L44.4991 21.9394C44.4991 21.9394 44.4759 21.9471 44.4605 21.9471C44.3447 21.7105 44.2289 21.4739 44.1131 21.2603C44.9699 21.1763 45.8344 21.1229 46.2126 21.1382ZM44.8464 22.7941L46.3284 22.6873C46.3361 22.8933 46.3361 23.0994 46.3439 23.3054L45.0934 23.3817C45.0085 23.1833 44.9313 22.9849 44.8464 22.7941ZM41.4038 18.6733C41.9287 19.3296 44.6612 22.9391 45.5643 28.1893C45.3095 28.2122 45.0471 28.258 44.7692 28.3114C43.9896 23.5114 41.5042 20.1003 40.493 18.8794C40.8789 18.8107 41.1182 18.7573 41.1568 18.7496C41.2417 18.7267 41.3266 18.7038 41.4115 18.681L41.4038 18.6733ZM45.6569 29.0516C45.6029 29.2729 45.5334 29.4942 45.4716 29.7155C43.4261 29.9826 39.9372 31.486 39.505 31.6767C39.258 31.5317 39.0882 31.4478 39.0573 31.4249C38.9569 31.3715 38.8412 31.3181 38.7177 31.257C40.1071 30.6694 43.5882 29.2577 45.6492 29.0516H45.6569ZM46.1355 26.6173C45.9348 25.7703 45.6878 24.9766 45.4253 24.244L46.3361 24.1906C46.313 25.0148 46.2435 25.8237 46.1355 26.6173ZM40.2228 14.4533C35.0589 15.4301 31.7398 13.0492 31.6549 12.9881C28.9147 11.5611 29.0768 8.05845 29.0768 7.9974L29.0614 1.80857C35.5143 3.35769 40.8095 7.63874 43.7735 13.2323C42.5308 13.7818 40.2151 14.461 40.2228 14.461V14.4533ZM33.9551 17.0555C34.04 17.0784 35.3986 17.4523 37.4441 17.4523C38.3703 17.4523 39.4355 17.376 40.5856 17.1547C40.6628 17.1395 42.4304 16.8571 44.8464 15.5904C44.9468 15.8422 45.0394 16.094 45.1243 16.3458C44.6534 16.6129 43.3567 17.2768 40.933 17.9026C40.9021 17.9026 37.9689 18.597 35.0975 18.017C35.0667 18.017 31.9482 17.6584 28.5288 14.9036C28.3436 14.4304 28.1892 13.9726 28.0657 13.5452C29.1154 14.7128 30.9294 16.1398 33.9551 17.0555ZM32.0023 20.0698C30.9216 19.032 29.5168 16.8724 29.5091 16.8648C29.4473 16.7732 29.401 16.674 29.347 16.5824C32.3959 18.597 34.8891 18.8717 34.974 18.8794C35.7459 19.0396 36.5178 19.1083 37.2434 19.1236C37.2588 19.1388 38.0075 19.8485 38.9492 21.1382C37.282 21.4282 34.8274 22.5347 34.5109 22.6797C34.4955 22.6873 34.48 22.7025 34.4646 22.7178C33.5615 21.5579 32.0795 20.1385 32.0177 20.0774L32.0023 20.0698ZM36.0315 26.6173C36.0315 26.6173 36.0624 26.6097 36.0778 26.5944C36.101 26.5792 38.6636 25.1827 41.0951 24.8622C41.6354 26.0602 42.1062 27.4262 42.415 28.9372C40.1302 29.6697 37.9072 30.6618 37.7605 30.7305C37.7374 30.7381 37.7219 30.7534 37.7065 30.7686C37.282 30.5702 36.8188 30.3489 36.348 30.1276C36.3325 28.7235 36.209 27.5636 36.0315 26.6173ZM31.3076 23.0002C31.3076 23.0002 32.6352 24.2135 33.1369 25.6863C33.1369 25.7016 33.546 26.9531 33.6464 28.8837C33.3685 28.754 33.1215 28.6395 32.8977 28.5403C32.504 25.6329 31.5623 24.6027 31.5546 24.6027C30.9371 23.7404 29.4087 22.1455 29.347 22.0768C28.0348 20.7261 25.8272 17.3226 25.8041 17.2845C25.8041 17.2845 25.7963 17.2768 25.7886 17.2692C25.7886 16.6053 25.7886 16.0024 25.7886 15.5522C26.2826 16.6587 27.0391 18.0476 28.1351 19.4746C28.2123 19.5738 30.0031 21.8402 31.2999 23.0002H31.3076ZM24.6154 27.388C25.1171 28.0748 25.9662 29.0669 27.2243 30.0971C27.0159 30.3718 25.4721 32.3864 24.021 34.3476C23.1719 33.8287 22.4078 33.2869 21.7439 32.7832C23.1565 31.1426 24.0519 29.1966 24.6154 27.3957V27.388ZM23.4961 35.0497C23.3649 35.2328 23.2337 35.4083 23.1025 35.5839C22.1299 34.92 18.7413 32.5619 17.8923 31.6157C17.8691 31.5928 15.6615 29.6087 15.0131 27.0446C15.3064 26.9607 15.5766 26.8768 15.8159 26.7928C16.0011 27.5712 16.6495 29.6469 18.5792 31.196C18.6641 31.2799 20.6016 33.2716 23.4884 35.0497H23.4961ZM18.3168 29.7155C17.1281 28.3572 16.7421 26.8691 16.6495 26.4647C17.1512 26.2434 17.4523 26.0679 17.4832 26.045C19.1504 25.1521 20.3546 23.7022 21.0956 22.5881C21.057 22.9239 21.0107 23.252 20.9566 23.5572C20.9566 23.5954 20.7096 27.0294 18.3091 29.7155H18.3168ZM11.4084 25.8008C13.9248 25.8008 16.171 24.8164 16.2559 24.7782C18.2859 24.0075 19.7139 21.7944 19.7371 21.7563C20.4781 20.894 21.0029 19.5662 21.3734 18.2307C21.358 18.9251 21.3271 19.734 21.2808 20.5658C21.2345 20.604 21.1959 20.6498 21.1728 20.7108C21.1573 20.7414 19.7293 23.8548 17.0509 25.2971C17.02 25.3124 14.3339 26.9226 10.8064 26.5639C10.8064 26.4265 10.7986 26.3502 10.7986 26.3502C10.7986 26.1594 10.7986 25.9763 10.8064 25.7855C11.0071 25.8008 11.2077 25.8084 11.4084 25.8084V25.8008ZM16.0166 22.0081C16.0166 22.0081 13.8244 23.2901 11.2386 23.1833C11.9642 20.6956 13.3381 19.0778 13.3613 19.0549C13.369 19.0396 13.3767 19.0244 13.3845 19.0167C14.3879 18.9175 14.9591 18.6733 14.9745 18.6657C16.8271 18.101 18.2164 17.025 19.0578 16.2314C18.9575 16.7808 18.8339 17.3226 18.6873 17.8263C18.6873 17.8568 17.9386 21.0008 16.0166 22.0157V22.0081ZM9.57135 16.8342C10.6366 17.2692 11.6168 17.4218 12.4582 17.4218C14.1872 17.4218 15.3219 16.7961 15.3682 16.7655C17.4754 15.7735 18.695 14.5449 19.4051 13.4765C19.3743 13.8734 19.3357 14.2854 19.2816 14.6975C19.2816 14.6975 19.2739 14.7051 19.2662 14.7128C19.2508 14.7357 17.5372 16.9716 14.6581 17.8568C14.6426 17.8644 12.8827 18.6199 10.0654 17.8415L2.70159 15.2622C2.81737 14.9722 2.94087 14.6823 3.0721 14.3999L9.56363 16.8495L9.57135 16.8342ZM17.7224 1.95356L17.7688 8.51632C17.7688 8.51632 17.7456 11.9351 15.7619 13.4613C15.6769 13.5452 13.6469 15.4683 10.2352 14.1481L4.30711 12.0343C7.22483 7.20377 11.9565 3.51794 17.7302 1.95356H17.7224ZM22.9867 45.8859C23.0176 43.9247 23.7817 42.1314 24.3143 41.1088C24.7003 42.3145 25.3023 44.4894 25.1171 45.863C24.6539 45.8935 24.1908 45.9088 23.7277 45.9088C23.4807 45.9088 23.226 45.9011 22.979 45.8935L22.9867 45.8859ZM39.6825 39.3842C38.4629 37.6443 35.6842 35.5152 35.0744 35.0649C35.1593 34.7063 35.2287 34.4239 35.2828 34.2332C36.5641 34.8284 37.8686 35.4847 38.5942 35.9883C39.4741 36.6904 40.4544 37.6366 40.794 38.1937C40.4312 38.5981 40.0607 39.0026 39.6748 39.3842H39.6825Z" fill="white"/>
<path d="M79.1665 28.3105C80.7711 27.6318 82.0036 26.6591 82.8718 25.3772C83.74 24.1029 84.1741 22.5797 84.1741 20.8228C84.1741 19.0659 83.7477 17.5352 82.8873 16.2458C82.0269 14.9564 80.8021 13.9686 79.213 13.2674C77.6239 12.5661 75.748 12.2192 73.5852 12.2192H63.0352V35.9338H68.6784V29.3284H73.8643L78.5696 35.9338H84.6314L79.1665 28.3105ZM77.1433 23.8692C76.2596 24.593 74.9728 24.955 73.2752 24.955H68.6784V16.6907H73.2752C74.9728 16.6907 76.2596 17.0451 77.1433 17.7614C78.027 18.4702 78.4688 19.4957 78.4688 20.8304C78.4688 22.165 78.027 23.1604 77.1433 23.8767V23.8692Z" fill="white"/>
<path d="M105.251 21.9765C104.368 20.5514 103.151 19.443 101.592 18.6362C100.034 17.8369 98.2747 17.4297 96.2981 17.4297C94.3214 17.4297 92.554 17.8293 90.9881 18.6362C89.4223 19.4354 88.1975 20.5514 87.3138 21.9765C86.4301 23.4017 85.9883 25.0153 85.9883 26.8175C85.9883 28.6196 86.4301 30.2408 87.3138 31.6584C88.1975 33.0836 89.4223 34.192 90.9881 34.9988C92.554 35.7981 94.3291 36.2053 96.2981 36.2053C98.267 36.2053 100.034 35.8056 101.592 34.9988C103.151 34.1995 104.368 33.0836 105.251 31.6584C106.135 30.2333 106.577 28.6196 106.577 26.8175C106.577 25.0153 106.135 23.3941 105.251 21.9765ZM99.7321 30.4972C98.8406 31.4096 97.6934 31.8696 96.2981 31.8696C94.9027 31.8696 93.7555 31.4096 92.8485 30.4972C91.9416 29.5848 91.492 28.3557 91.492 26.825C91.492 25.2943 91.9416 24.0652 92.8485 23.1529C93.7555 22.2405 94.9027 21.7805 96.2981 21.7805C97.6934 21.7805 98.8329 22.2405 99.7321 23.1529C100.624 24.0652 101.073 25.2943 101.073 26.825C101.073 28.3557 100.624 29.5848 99.7321 30.4972Z" fill="white"/>
<path d="M127.188 21.9765C126.304 20.5514 125.087 19.443 123.529 18.6362C121.971 17.8369 120.211 17.4297 118.235 17.4297C116.258 17.4297 114.491 17.8293 112.925 18.6362C111.359 19.4354 110.134 20.5514 109.25 21.9765C108.367 23.4017 107.925 25.0153 107.925 26.8175C107.925 28.6196 108.367 30.2408 109.25 31.6584C110.134 33.0836 111.359 34.192 112.925 34.9988C114.491 35.7981 116.266 36.2053 118.235 36.2053C120.204 36.2053 121.971 35.8056 123.529 34.9988C125.087 34.1995 126.304 33.0836 127.188 31.6584C128.071 30.2333 128.513 28.6196 128.513 26.8175C128.513 25.0153 128.071 23.3941 127.188 21.9765ZM121.669 30.4972C120.777 31.4096 119.63 31.8696 118.235 31.8696C116.839 31.8696 115.692 31.4096 114.785 30.4972C113.878 29.5848 113.429 28.3557 113.429 26.825C113.429 25.2943 113.878 24.0652 114.785 23.1529C115.692 22.2405 116.839 21.7805 118.235 21.7805C119.63 21.7805 120.769 22.2405 121.669 23.1529C122.56 24.0652 123.01 25.2943 123.01 26.825C123.01 28.3557 122.56 29.5848 121.669 30.4972Z" fill="white"/>
<path d="M142.552 35.0592C142.017 35.4437 141.359 35.7303 140.583 35.9263C139.808 36.1148 139.002 36.2128 138.165 36.2128C135.909 36.2128 134.18 35.6624 132.979 34.554C131.77 33.4455 131.165 31.8243 131.165 29.6753V13.6821H136.599V18.1234H141.235V22.1877H136.599V29.6075C136.599 30.3766 136.793 30.9647 137.188 31.387C137.583 31.8017 138.149 32.0128 138.893 32.0128C139.731 32.0128 140.475 31.7866 141.126 31.3342L142.552 35.0592Z" fill="white"/>
<path d="M150.141 34.7501C149.249 33.8452 148.8 32.5935 148.8 30.9874V10.8018H151.273V30.7914C151.273 31.8546 151.528 32.6614 152.04 33.2118C152.552 33.7623 153.319 34.0413 154.335 34.0413C154.986 34.0413 155.544 33.9432 156.009 33.7397L156.179 35.7379C155.459 35.9867 154.714 36.1073 153.947 36.1073C152.296 36.1073 151.025 35.6549 150.133 34.7501H150.141Z" fill="white"/>
<path d="M172.93 18.1162V21.5018C172.163 20.3482 171.186 19.4735 169.985 18.8778C168.791 18.2821 167.45 17.9805 165.962 17.9805C164.241 17.9805 162.69 18.3575 161.295 19.1191C159.9 19.8731 158.807 20.9438 158.024 22.3237C157.233 23.7036 156.838 25.272 156.838 27.0289C156.838 28.7859 157.233 30.3618 158.024 31.7417C158.815 33.1216 159.908 34.1923 161.295 34.9615C162.69 35.7306 164.241 36.1151 165.962 36.1151C167.496 36.1151 168.869 35.7984 170.086 35.165C171.303 34.5316 172.287 33.6193 173.031 32.4203V35.9417H175.403V18.1237H172.93V18.1162ZM172.078 30.6483C171.489 31.7115 170.675 32.5259 169.644 33.1065C168.613 33.6796 167.458 33.9737 166.179 33.9737C164.9 33.9737 163.714 33.6871 162.675 33.1065C161.644 32.5334 160.83 31.7115 160.233 30.6483C159.644 29.5851 159.342 28.3787 159.342 27.0214C159.342 25.6641 159.636 24.4577 160.233 23.3945C160.822 22.3313 161.636 21.5169 162.675 20.9363C163.706 20.3632 164.876 20.0692 166.179 20.0692C167.481 20.0692 168.613 20.3557 169.644 20.9363C170.675 21.5094 171.489 22.3313 172.078 23.3945C172.667 24.4577 172.969 25.6641 172.969 27.0214C172.969 28.3787 172.675 29.5851 172.078 30.6483Z" fill="white"/>
<path d="M198.814 22.3164C198.023 20.9365 196.93 19.8733 195.543 19.1117C194.147 18.3577 192.597 17.9731 190.876 17.9731C189.388 17.9731 188.047 18.2747 186.853 18.8704C185.659 19.4661 184.675 20.3408 183.907 21.4945V10.7871H181.435V35.9268H183.807V32.4054C184.551 33.6044 185.527 34.5167 186.752 35.1501C187.969 35.7835 189.349 36.1002 190.876 36.1002C192.597 36.1002 194.147 35.7157 195.543 34.9466C196.938 34.1774 198.031 33.1067 198.814 31.7268C199.605 30.3469 200 28.7785 200 27.0141C200 25.2496 199.605 23.6812 198.814 22.3088V22.3164ZM196.636 30.6485C196.047 31.7117 195.225 32.5261 194.178 33.1067C193.132 33.6798 191.969 33.9738 190.698 33.9738C189.427 33.9738 188.233 33.6873 187.194 33.1067C186.163 32.5336 185.349 31.7117 184.76 30.6485C184.171 29.5853 183.869 28.3789 183.869 27.0216C183.869 25.6643 184.163 24.4579 184.76 23.3947C185.349 22.3315 186.163 21.5171 187.194 20.9365C188.225 20.3634 189.396 20.0693 190.698 20.0693C192 20.0693 193.14 20.3559 194.178 20.9365C195.225 21.5096 196.039 22.3315 196.636 23.3947C197.225 24.4579 197.527 25.6643 197.527 27.0216C197.527 28.3789 197.233 29.5853 196.636 30.6485Z" fill="white"/>
</svg>
